<?xml version="1.0" standalone="no"?>
<!DOCTYPE svg PUBLIC "-//W3C//DTD SVG 20010904//EN"
 "http://www.w3.org/TR/2001/REC-SVG-20010904/DTD/svg10.dtd">
<svg version="1.0" xmlns="http://www.w3.org/2000/svg"
 width="1639.000000pt" height="1159.000000pt" viewBox="0 0 1639.000000 1159.000000"
 preserveAspectRatio="xMidYMid meet">
<metadata>
Created by potrace 1.16, written by Peter Selinger 2001-2019
</metadata>
<g transform="translate(0.000000,1159.000000) scale(0.100000,-0.100000)"
fill="#000000" stroke="none">
<path d="M7225 8737 c-135 -45 -208 -142 -208 -277 0 -114 58 -207 158 -255
76 -36 180 -35 253 1 176 88 211 330 67 463 -24 22 -61 47 -81 56 -53 22 -141
27 -189 12z"/>
<path d="M9237 8564 c-146 -26 -292 -99 -409 -203 -105 -93 -199 -253 -239
-406 -25 -94 -29 -266 -10 -360 58 -271 255 -506 509 -604 102 -39 185 -53
312 -52 351 2 657 229 769 570 18 56 21 88 21 250 0 179 -1 189 -29 268 -76
219 -260 411 -473 493 -145 56 -300 71 -451 44z"/>
<path d="M5913 7069 c-61 -24 -132 -89 -164 -150 -16 -31 -24 -67 -27 -125 -4
-73 -1 -88 23 -143 33 -74 103 -141 173 -167 40 -15 93 -19 340 -23 l293 -6
175 -415 c121 -287 189 -436 220 -483 77 -113 185 -194 326 -245 l73 -27 1019
-3 c1135 -3 1077 -6 1171 66 34 26 60 57 82 101 28 54 33 73 33 135 0 40 -7
93 -16 119 -22 64 -92 140 -162 174 l-57 28 -925 5 c-1048 6 -961 -2 -1043 90
-35 40 -67 106 -201 426 -87 208 -170 399 -184 424 -39 68 -116 144 -180 178
-114 60 -129 62 -541 61 -352 0 -379 -1 -428 -20z"/>
<path d="M6290 3271 l0 -462 90 3 90 2 0 215 c0 189 3 221 19 256 28 60 62 87
119 93 61 5 102 -14 134 -65 22 -36 23 -49 28 -268 l5 -230 88 -2 89 -1 -4
256 c-3 236 -5 261 -24 303 -76 164 -288 217 -414 102 l-38 -34 -4 120 c-4
150 -12 163 -113 169 l-65 4 0 -461z"/>
<path d="M9180 3660 l0 -70 90 0 90 0 0 39 c0 22 -3 47 -6 56 -10 26 -59 45
-119 45 l-55 0 0 -70z"/>
<path d="M5829 3530 c-133 -23 -218 -121 -207 -239 10 -102 74 -148 278 -200
112 -28 150 -50 150 -85 0 -30 -50 -60 -108 -64 -79 -6 -127 15 -150 65 l-17
38 -85 -1 -85 -2 3 -33 c8 -87 60 -155 142 -184 100 -35 276 -28 360 15 51 26
97 81 111 132 14 54 5 135 -19 168 -30 40 -111 78 -236 110 -129 32 -166 52
-166 85 0 31 28 53 77 61 54 8 102 -8 143 -51 33 -34 36 -35 111 -35 l77 0 -8
35 c-23 101 -99 165 -220 184 -72 12 -85 12 -151 1z"/>
<path d="M7270 3530 c-107 -20 -166 -63 -212 -158 -32 -65 -33 -70 -33 -197 0
-148 16 -209 72 -274 67 -79 214 -117 333 -87 156 40 231 156 232 355 0 106
-19 180 -65 247 -61 89 -201 138 -327 114z m140 -169 c62 -44 89 -129 75 -239
-15 -118 -70 -177 -159 -169 -41 4 -55 10 -82 39 -76 84 -65 325 18 369 58 31
103 31 148 0z"/>
<path d="M7993 3529 c-74 -12 -154 -51 -196 -93 -63 -63 -67 -90 -67 -514 l0
-374 60 4 c45 3 66 10 85 28 25 23 25 26 25 172 0 81 2 148 4 148 2 0 21 -17
42 -39 99 -98 289 -71 376 54 50 72 63 128 63 260 -1 142 -23 213 -85 275 -65
65 -195 99 -307 79z m138 -166 c95 -56 109 -283 23 -368 -58 -58 -147 -54
-203 10 -35 40 -46 84 -45 175 1 85 17 132 60 170 29 25 43 30 85 30 30 0 63
-7 80 -17z"/>
<path d="M8721 3529 c-75 -13 -175 -63 -207 -104 -51 -67 -54 -97 -54 -503 l0
-374 60 4 c45 3 66 10 85 28 25 23 25 26 25 172 0 81 2 148 4 148 2 0 21 -17
42 -39 98 -98 288 -72 372 51 46 69 64 126 69 228 7 117 -12 202 -62 276 -38
59 -103 97 -194 114 -60 11 -65 11 -140 -1z m159 -187 c43 -43 60 -92 60 -176
0 -79 -18 -133 -56 -171 -84 -84 -216 -33 -243 95 -23 107 -5 198 49 253 35
34 42 37 95 37 53 0 60 -3 95 -38z"/>
<path d="M9689 3530 c-116 -20 -205 -87 -231 -172 -9 -30 -13 -119 -13 -293
l0 -250 88 0 88 0 0 220 c-1 240 5 286 42 323 33 32 101 40 150 17 61 -29 67
-54 67 -293 0 -206 1 -211 23 -238 21 -24 31 -27 88 -28 l64 -1 0 261 0 260
-30 60 c-25 48 -40 64 -80 86 -82 46 -174 63 -256 48z"/>
<path d="M10370 3530 c-140 -24 -215 -111 -241 -279 -38 -249 91 -447 291
-445 73 1 118 19 162 67 l28 29 0 -32 c0 -97 -55 -182 -126 -196 -46 -9 -104
9 -134 41 -22 23 -30 25 -117 25 -93 0 -94 0 -87 -22 22 -73 76 -138 144 -174
28 -15 57 -19 151 -19 113 0 116 1 192 38 131 65 146 103 154 392 6 236 -5
364 -38 432 -48 99 -233 169 -379 143z m175 -183 c88 -88 81 -313 -11 -373
-38 -25 -112 -29 -154 -7 -57 30 -75 73 -75 183 0 167 42 230 154 230 47 0 57
-4 86 -33z"/>
<path d="M9182 3168 l3 -353 88 -3 87 -3 0 331 0 331 -25 24 c-21 22 -33 25
-90 25 l-65 0 2 -352z"/>
<path d="M6469 2325 c-74 -40 -79 -209 -8 -259 36 -25 112 -21 143 7 31 28 44
67 22 67 -9 0 -16 -6 -16 -14 0 -23 -50 -56 -85 -56 -25 0 -40 8 -59 31 -22
26 -26 40 -26 96 0 58 3 67 29 94 38 37 82 39 116 4 14 -13 25 -31 25 -40 0
-8 7 -15 15 -15 18 0 18 -1 4 39 -19 55 -101 78 -160 46z"/>
<path d="M6798 2325 c-25 -14 -46 -50 -35 -61 2 -3 18 9 35 26 21 20 40 30 62
30 40 0 80 -39 80 -78 0 -30 0 -30 -70 -34 -83 -4 -120 -30 -120 -85 0 -47 29
-73 84 -73 28 0 52 7 69 20 14 11 28 20 31 20 3 0 6 -9 6 -20 0 -12 7 -20 16
-20 14 0 16 15 13 120 -4 107 -6 122 -26 141 -28 28 -107 36 -145 14z m142
-168 c0 -42 -34 -76 -82 -83 -51 -9 -78 9 -78 51 0 44 34 64 108 65 l52 0 0
-33z"/>
<path d="M7833 2330 c-76 -32 -91 -192 -24 -252 43 -38 106 -39 150 -2 30 25
42 64 21 64 -5 0 -10 -5 -10 -10 0 -6 -11 -22 -25 -35 -28 -29 -79 -33 -112
-10 -48 33 -55 158 -12 203 42 46 117 36 139 -19 7 -16 16 -29 21 -29 17 0 9
39 -14 65 -25 30 -94 43 -134 25z"/>
<path d="M8402 2326 c-41 -22 -62 -66 -62 -129 0 -63 17 -107 52 -131 41 -29
158 -14 158 20 0 10 -6 10 -27 -2 -39 -20 -86 -17 -116 6 -27 21 -53 83 -42
100 3 6 49 10 107 10 l100 0 -7 38 c-3 20 -13 47 -21 60 -26 40 -96 54 -142
28z"/>
<path d="M8734 2330 c-21 -8 -54 -46 -54 -62 0 -16 29 -7 35 10 3 11 17 24 31
30 62 29 114 2 114 -59 l0 -39 -55 0 c-31 0 -69 -7 -86 -15 -52 -28 -61 -98
-16 -130 31 -22 99 -19 130 5 14 11 28 20 31 20 3 0 6 -9 6 -20 0 -11 6 -20
13 -20 9 0 11 27 9 107 -1 60 -5 118 -7 130 -10 42 -94 66 -151 43z m126 -180
c0 -35 -5 -43 -32 -60 -60 -36 -128 -17 -128 36 0 37 45 64 106 64 l54 0 0
-40z"/>
<path d="M9806 2319 c-37 -29 -56 -71 -56 -124 0 -94 47 -145 132 -145 45 0
93 24 83 41 -4 5 -15 3 -28 -6 -25 -17 -79 -20 -108 -5 -24 13 -49 61 -49 95
l0 25 101 0 102 0 -6 43 c-11 84 -107 127 -171 76z"/>
</g>
</svg>
